<svg width="512" height="512" viewBox="0 0 512 512" fill="none" xmlns="http://www.w3.org/2000/svg">
<path d="M512 256C512 397.385 397.385 512 256 512C114.615 512 0 397.385 0 256C0 114.615 114.615 0 256 0C397.385 0 512 114.615 512 256Z" fill="#005CBB"/>
<path d="M211.21 296.686L351.5 156.396C357.098 150.799 363.782 148 371.552 148C379.322 148 386.006 150.765 391.604 156.294C397.201 161.824 400 168.439 400 176.142C400 183.844 397.264 190.429 391.793 195.897L231.262 356.078C225.752 361.675 219.172 364.474 211.522 364.474C203.868 364.474 197.243 361.675 191.645 356.078L120.54 285.244C114.942 279.55 112.096 272.922 112.002 265.363C111.911 257.803 114.631 251.225 120.16 245.627C125.874 239.848 132.55 236.959 140.188 236.959C147.825 236.959 154.389 239.848 159.879 245.627L211.21 296.686Z" fill="white"/>
</svg>
