<svg xmlns="http://www.w3.org/2000/svg" width="512" height="512" fill="none"><path fill="#ABC7FF" d="M512 256c0 141.385-114.615 256-256 256S0 397.385 0 256 114.615 0 256 0s256 114.615 256 256Z"/><path fill="#002F65" d="m211.21 296.686 140.29-140.29c5.598-5.597 12.282-8.396 20.052-8.396s14.454 2.765 20.052 8.294c5.597 5.53 8.396 12.145 8.396 19.848 0 7.702-2.736 14.287-8.207 19.755L231.262 356.078c-5.51 5.597-12.09 8.396-19.74 8.396-7.654 0-14.279-2.799-19.877-8.396l-71.105-70.834c-5.598-5.694-8.444-12.322-8.538-19.881-.091-7.56 2.629-14.138 8.158-19.736 5.714-5.779 12.39-8.668 20.028-8.668 7.637 0 14.201 2.889 19.691 8.668l51.331 51.059Z"/></svg>